<?xml version="1.0" encoding="UTF-8" standalone="yes"?>
<svg xmlns="http://www.w3.org/2000/svg" xmlns:xlink="http://www.w3.org/1999/xlink" width="16.375cm" height="4.810cm" version="1.1" viewBox="-275.804 549.640 850.981 249.968">
  <!--
	Exported with Concepts: Smarter Sketching
	Version: 1805 on iOS 16.3
	https://concepts.app/
	-->
  <title>01211BA2-8752-470E-BEE2-012E18B0A96D</title>
  <desc>Drawing exported from Concepts: Smarter Sketching</desc>
  <defs></defs>
  <g id="Pen" opacity="1.000">
    <path id="STROKE_a6829f19-e7e0-4b85-8fcc-f3e5804b0145" opacity="1.000" fill="none" stroke="#000000" stroke-width="5.328" stroke-opacity="1.000" stroke-linecap="round" stroke-linejoin="round" d="M -238.921 589.966 Q -238.921 590.026 -238.921 590.086 Q -241.035 588.974 -241.634 643.040 Q -242.202 642.943 -244.609 635.086 Q -247.016 627.229 -246.912 612.476 Q -245.451 611.535 -242.463 612.453 Q -239.476 613.370 -234.720 614.846 Q -229.964 616.322 -225.796 617.038 Q -221.628 617.754 -216.600 615.537 "></path>
    <path id="STROKE_df0e3655-ff53-4e65-a07b-2fdbcf82eecc" opacity="1.000" fill="none" stroke="#000000" stroke-width="5.440" stroke-opacity="1.000" stroke-linecap="round" stroke-linejoin="round" d="M -210.239 582.884 Q -211.437 582.670 -212.785 584.551 Q -214.132 586.431 -214.507 587.959 Q -214.882 589.487 -214.964 590.586 Q -215.046 591.685 -215.392 602.723 Q -215.739 613.762 -215.991 621.694 Q -216.244 629.627 -214.571 635.944 Q -214.571 635.891 -214.024 634.447 "></path>
    <path id="STROKE_e0937439-a857-4a4e-9fda-eb1963e8e089" opacity="1.000" fill="none" stroke="#000000" stroke-width="5.440" stroke-opacity="1.000" stroke-linecap="round" stroke-linejoin="round" d="M -188.785 617.693 Q -188.804 620.146 -188.899 619.799 Q -188.993 619.453 -189.267 620.004 Q -189.542 620.555 -189.539 620.485 Q -189.536 620.415 -191.278 622.608 Q -193.021 624.801 -194.347 627.749 Q -195.673 630.697 -195.999 633.135 Q -196.325 635.574 -196.233 636.873 Q -196.141 638.172 -195.192 639.109 Q -194.243 640.046 -192.332 640.291 Q -190.421 640.537 -187.278 640.083 Q -184.135 639.628 -179.590 635.798 Q -175.046 631.968 -172.317 628.481 Q -169.588 624.994 -168.833 622.443 Q -168.078 619.891 -168.102 617.999 Q -168.126 616.106 -169.575 615.013 Q -171.023 613.921 -172.713 613.642 Q -174.403 613.362 -178.632 612.983 Q -182.861 612.603 -186.586 613.099 Q -190.311 613.595 -192.190 614.472 Q -194.069 615.349 -195.070 616.248 Q -196.070 617.146 -196.310 618.720 Q -196.549 620.294 -194.622 621.870 "></path>
    <path id="STROKE_7d0c9a46-5be3-4587-bce9-436532ad7865" opacity="1.000" fill="none" stroke="#000000" stroke-width="5.440" stroke-opacity="1.000" stroke-linecap="round" stroke-linejoin="round" d="M -144.486 599.862 Q -145.322 599.600 -146.994 600.253 Q -148.666 600.906 -149.594 601.522 Q -150.522 602.139 -150.698 604.255 Q -150.874 606.372 -150.334 609.085 Q -149.794 611.799 -147.940 615.941 Q -146.085 620.084 -143.961 623.966 Q -141.837 627.848 -140.537 629.929 Q -139.236 632.010 -137.659 633.185 Q -136.082 634.360 -133.689 634.729 Q -131.296 635.098 -128.607 631.474 Q -125.919 627.849 -124.596 625.163 Q -123.272 622.477 -122.809 619.534 Q -122.346 616.591 -122.880 614.874 Q -123.413 613.157 -124.245 612.539 Q -125.077 611.920 -126.048 611.430 Q -127.020 610.940 -130.031 611.675 "></path>
    <path id="STROKE_c46852ae-1787-4fc1-9f93-f4431f03865e" opacity="1.000" fill="none" stroke="#000000" stroke-width="5.440" stroke-opacity="1.000" stroke-linecap="round" stroke-linejoin="round" d="M -131.011 609.100 Q -131.460 608.961 -132.516 608.666 Q -132.777 608.701 -132.831 613.114 Q -132.885 617.527 -131.772 621.228 Q -130.660 624.930 -129.405 627.068 Q -128.150 629.206 -126.140 629.932 Q -124.129 630.658 -121.192 630.588 Q -118.255 630.519 -114.503 627.132 Q -110.750 623.744 -107.260 618.940 Q -103.771 614.135 -102.113 603.396 Q -103.081 602.484 -108.029 605.447 "></path>
    <path id="STROKE_00c67e6b-86b3-4796-81f3-8d346da8151d" opacity="1.000" fill="none" stroke="#000000" stroke-width="5.178" stroke-opacity="1.000" stroke-linecap="round" stroke-linejoin="round" d="M 368.859 573.710 Q 368.543 573.415 372.568 570.582 Q 373.215 572.994 375.566 586.804 Q 377.917 600.613 387.900 639.623 Q 388.976 638.374 389.645 636.200 Q 390.313 634.026 391.282 629.308 Q 392.251 624.591 393.674 617.578 Q 395.097 610.564 395.740 606.486 Q 396.383 602.407 396.312 597.935 Q 398.919 597.831 398.079 597.855 Q 397.239 597.880 400.247 597.865 "></path>
    <path id="STROKE_3dfe7964-5ee3-49bd-9e52-1853785eddda" opacity="1.000" fill="none" stroke="#000000" stroke-width="5.254" stroke-opacity="1.000" stroke-linecap="round" stroke-linejoin="round" d="M 401.935 587.768 Q 403.224 589.142 399.448 580.818 Q 399.297 580.818 398.679 580.818 Q 398.438 582.700 398.528 582.590 Q 398.528 585.111 398.528 584.649 Q 399.840 587.853 410.076 628.258 Q 410.985 627.309 413.870 606.878 Q 416.755 586.447 423.343 562.919 Q 423.474 561.884 423.124 565.023 Q 422.773 568.161 423.916 570.720 "></path>
    <path id="STROKE_297abe30-4bc1-4912-837d-67baa2916169" opacity="1.000" fill="none" stroke="#000000" stroke-width="5.242" stroke-opacity="1.000" stroke-linecap="round" stroke-linejoin="round" d="M 447.705 561.197 Q 446.259 559.949 446.895 580.250 Q 447.531 600.550 447.359 622.229 Q 447.208 622.298 447.133 622.298 Q 447.190 619.920 446.737 615.447 Q 446.283 610.974 447.380 607.099 Q 448.476 603.223 450.471 601.157 Q 452.465 599.091 455.023 597.669 Q 457.581 596.246 461.253 596.319 Q 464.926 596.393 468.450 613.052 Q 470.076 613.859 474.962 611.487 "></path>
    <path id="STROKE_3d4feba6-83b9-4ebb-b6e5-91bd48d0e7d5" opacity="1.000" fill="none" stroke="#000000" stroke-width="5.440" stroke-opacity="1.000" stroke-linecap="round" stroke-linejoin="round" d="M 487.928 601.409 Q 488.354 601.409 490.219 601.409 Q 489.078 601.898 484.548 605.739 Q 480.018 609.580 476.365 614.089 Q 472.711 618.598 473.168 624.496 Q 478.314 625.955 484.821 621.188 Q 491.327 616.421 493.777 605.389 Q 492.766 606.302 492.642 611.532 Q 492.518 616.762 492.385 619.755 Q 492.251 622.748 494.017 626.390 Q 495.782 630.032 500.716 630.573 Q 505.649 631.114 511.597 621.308 "></path>
    <path id="STROKE_de413b24-a005-4dc1-949c-4a3202e88556" opacity="1.000" fill="none" stroke="#000000" stroke-width="5.287" stroke-opacity="1.000" stroke-linecap="round" stroke-linejoin="round" d="M 522.723 566.028 Q 522.559 565.565 522.150 565.473 Q 521.297 566.097 523.715 581.801 Q 526.133 597.506 527.393 607.832 Q 528.653 618.158 533.336 627.406 Q 533.758 627.406 534.045 627.337 Q 533.928 626.982 534.711 622.394 Q 535.494 617.806 529.680 610.722 Q 523.865 603.637 518.959 597.737 Q 514.053 591.836 512.094 585.283 Q 512.975 583.768 525.858 582.703 Q 538.741 581.638 545.647 581.431 Q 552.553 581.224 556.555 581.222 Q 560.557 581.219 563.639 583.927 "></path>
    <path id="STROKE_7edd1224-08cf-456c-ac0d-e250f44f3f01" opacity="1.000" fill="none" stroke="#bb434e" stroke-width="10.396" stroke-opacity="1.000" stroke-linecap="round" stroke-linejoin="round" d="M -260.799 737.789 Q -260.494 737.807 -258.738 736.866 Q -251.145 735.841 -245.234 734.887 Q -239.324 733.934 -228.260 732.423 Q -217.196 730.912 -211.125 730.263 Q -205.053 729.614 -200.371 729.192 Q -195.689 728.770 -185.084 728.003 Q -174.478 727.236 -169.071 726.880 Q -163.663 726.523 -148.014 725.460 Q -132.365 724.397 -113.286 723.358 Q -94.208 722.319 -83.062 721.925 Q -71.917 721.532 -59.618 721.276 Q -47.319 721.020 -13.922 720.209 Q 19.474 719.398 38.195 718.636 Q 56.915 717.874 68.400 717.339 Q 79.885 716.803 99.423 716.148 Q 118.960 715.492 129.670 715.269 Q 140.380 715.046 149.546 714.936 Q 158.713 714.827 166.032 714.741 Q 173.351 714.654 200.919 714.571 Q 228.487 714.489 243.830 714.507 Q 259.172 714.526 272.598 714.518 Q 286.024 714.510 299.090 714.719 Q 312.156 714.929 321.817 715.463 Q 331.477 715.997 346.709 717.776 Q 361.941 719.555 375.092 721.634 Q 388.243 723.712 395.556 724.474 Q 402.870 725.235 408.852 724.629 Q 408.894 724.671 408.320 724.133 Q 407.746 723.594 406.778 723.089 Q 405.811 722.584 404.109 721.903 Q 402.407 721.222 398.226 719.454 "></path>
    <path id="STROKE_8fe121f0-7a4f-4918-b293-7b3e38394482" opacity="1.000" fill="none" stroke="#bb434e" stroke-width="12.375" stroke-opacity="1.000" stroke-linecap="round" stroke-linejoin="round" d="M 419.755 696.170 Q 420.696 696.232 423.882 696.616 Q 427.069 697.000 436.595 699.239 Q 446.122 701.477 462.891 706.086 Q 479.661 710.694 489.445 714.073 Q 499.230 717.452 504.345 720.381 Q 509.461 723.310 511.991 725.836 Q 514.522 728.363 515.849 731.303 Q 517.176 734.244 516.951 737.080 Q 516.725 739.917 513.512 743.924 Q 510.300 747.930 499.744 752.939 Q 489.187 757.948 475.470 761.737 Q 461.753 765.527 412.639 776.576 "></path>
  </g>
</svg>