<?xml version="1.0" encoding="UTF-8" standalone="yes"?>
<svg xmlns="http://www.w3.org/2000/svg" xmlns:xlink="http://www.w3.org/1999/xlink" width="10.437cm" height="9.185cm" version="1.1" viewBox="-111.704 517.675 542.397 477.329">
  <!--
	Exported with Concepts: Smarter Sketching
	Version: 1878 on iOS 16.3
	https://concepts.app/
	-->
  <title>C33546D8-57A0-4885-961C-040BA235250A</title>
  <desc>Drawing exported from Concepts: Smarter Sketching</desc>
  <defs></defs>
  <g id="Pen" opacity="1.000">
    <path id="STROKE_5363255c-f9ac-48d4-9ec3-f79c9c86a54b" opacity="1.000" fill="none" stroke="#000000" stroke-width="2.720" stroke-opacity="1.000" stroke-linecap="round" stroke-linejoin="round" d="M -22.519 528.271 Q -22.331 528.182 -22.123 527.679 Q -21.915 527.177 -21.881 526.836 Q -21.847 526.495 -21.834 526.393 Q -21.820 526.291 -22.000 526.178 Q -22.180 526.066 -22.359 526.065 Q -22.538 526.064 -22.650 526.045 Q -22.761 526.027 -23.382 526.182 Q -24.004 526.337 -25.292 526.967 Q -26.580 527.597 -27.401 528.362 Q -28.222 529.127 -28.607 529.669 Q -28.992 530.210 -29.121 530.538 Q -29.250 530.865 -29.297 531.619 Q -29.343 532.373 -27.635 533.205 Q -25.928 534.038 -24.853 534.572 Q -23.778 535.107 -23.117 535.514 Q -22.455 535.921 -22.122 536.466 Q -21.789 537.011 -21.986 537.420 Q -22.183 537.829 -23.370 538.740 Q -24.558 539.650 -25.623 540.285 Q -26.688 540.920 -27.791 541.109 Q -28.559 540.515 -26.596 538.606 "></path>
    <path id="STROKE_b0bd2ee5-732e-4b6f-a89b-556c2c264b32" opacity="1.000" fill="none" stroke="#000000" stroke-width="2.720" stroke-opacity="1.000" stroke-linecap="round" stroke-linejoin="round" d="M -19.120 542.579 Q -18.974 542.793 -18.596 542.696 Q -18.219 542.600 -17.904 542.275 Q -17.590 541.951 -17.412 541.820 Q -17.235 541.690 -17.059 541.499 Q -16.884 541.308 -16.173 540.725 Q -15.461 540.143 -14.469 539.808 Q -14.444 540.328 -14.454 540.327 Q -14.746 540.669 -14.878 542.744 Q -15.010 544.820 -14.901 545.935 Q -14.791 547.050 -14.769 547.493 Q -14.746 547.937 -15.077 548.376 Q -15.408 548.816 -16.557 548.936 Q -17.706 549.057 -19.090 548.460 Q -19.090 548.419 -19.078 548.365 Q -19.072 548.296 -13.895 548.519 "></path>
    <path id="STROKE_e4decb48-38b2-44e8-a9e7-550c7e33b42d" opacity="1.000" fill="none" stroke="#000000" stroke-width="2.702" stroke-opacity="1.000" stroke-linecap="round" stroke-linejoin="round" d="M 29.361 525.777 Q 29.395 525.659 29.185 525.333 Q 28.974 525.007 28.703 524.924 Q 28.432 524.842 28.292 524.882 Q 28.151 524.922 27.909 524.845 Q 27.666 524.768 26.427 525.180 Q 25.189 525.592 24.164 526.165 Q 23.140 526.738 22.678 527.156 Q 22.217 527.575 21.953 527.888 Q 21.689 528.202 21.485 528.811 Q 21.281 529.419 21.627 529.992 Q 21.973 530.564 22.563 531.066 Q 23.153 531.569 23.786 531.995 Q 24.419 532.420 25.403 533.152 Q 26.387 533.884 26.965 534.396 Q 27.543 534.907 28.026 535.667 Q 28.509 536.427 28.266 537.089 Q 28.022 537.752 26.533 538.947 Q 25.043 540.143 23.982 540.966 Q 22.920 541.789 20.157 542.862 Q 19.809 542.370 21.266 540.311 "></path>
    <path id="STROKE_6ede545d-95b4-4d9a-8027-1bd221305812" opacity="1.000" fill="none" stroke="#000000" stroke-width="2.720" stroke-opacity="1.000" stroke-linecap="round" stroke-linejoin="round" d="M 30.573 540.928 Q 30.691 540.946 30.294 540.873 Q 30.294 540.817 30.294 540.692 Q 30.400 540.642 31.066 540.563 Q 31.731 540.483 32.324 540.653 Q 32.916 540.823 33.255 541.044 Q 33.593 541.264 33.766 541.823 Q 33.938 542.382 33.773 543.120 Q 33.608 543.857 33.071 544.776 Q 32.534 545.694 32.172 546.739 Q 32.340 547.202 39.173 545.158 "></path>
    <path id="STROKE_1089a86a-59b2-4c1b-bb5b-27e4d0e29e5f" opacity="1.000" fill="none" stroke="#000000" stroke-width="2.720" stroke-opacity="1.000" stroke-linecap="round" stroke-linejoin="round" d="M 84.426 526.675 Q 84.426 526.124 84.426 526.296 Q 84.373 525.908 84.381 526.003 Q 84.398 525.972 84.310 525.879 Q 84.222 525.786 83.559 525.769 Q 82.896 525.752 81.853 526.457 Q 80.810 527.161 80.081 527.987 Q 79.351 528.813 79.067 529.200 Q 78.784 529.587 78.516 530.043 Q 78.248 530.499 77.948 531.037 Q 77.649 531.575 77.450 532.516 Q 77.250 533.457 77.179 533.959 Q 77.108 534.460 77.044 535.552 Q 76.980 536.644 77.118 537.428 Q 77.256 538.212 77.454 538.898 Q 77.651 539.584 78.219 540.257 Q 78.787 540.931 79.300 541.198 Q 79.814 541.465 80.612 541.738 Q 81.410 542.012 83.077 541.418 Q 83.077 541.390 83.077 541.377 Q 82.897 541.342 82.792 541.322 "></path>
    <path id="STROKE_f803656f-9cde-4aca-947e-be689890fbfe" opacity="1.000" fill="none" stroke="#000000" stroke-width="2.720" stroke-opacity="1.000" stroke-linecap="round" stroke-linejoin="round" d="M 91.059 542.216 Q 90.906 542.288 91.211 542.182 Q 91.517 542.075 91.673 541.933 Q 91.829 541.792 91.931 541.673 Q 92.034 541.555 92.055 541.526 Q 92.077 541.497 92.087 541.485 Q 92.097 541.473 92.109 541.457 Q 92.121 541.441 92.121 541.450 Q 92.121 541.460 92.088 541.453 Q 92.054 541.446 94.768 538.742 Q 94.768 539.302 94.768 539.136 Q 94.768 539.559 94.768 539.542 Q 94.748 539.921 94.666 541.339 Q 94.584 542.757 94.678 543.888 Q 94.773 545.019 94.823 545.363 Q 94.873 545.707 95.101 545.971 Q 95.328 546.235 95.452 546.364 Q 95.575 546.494 95.560 546.584 Q 95.544 546.675 95.544 546.680 Q 95.544 546.684 95.565 546.717 Q 95.586 546.750 95.436 546.930 Q 95.285 547.109 95.053 547.230 Q 94.822 547.350 94.697 547.406 Q 94.572 547.462 94.336 547.568 Q 94.101 547.673 93.736 547.754 Q 93.372 547.834 92.800 547.816 Q 92.784 547.839 93.761 547.796 Q 94.738 547.753 95.270 547.744 Q 95.803 547.734 96.005 547.713 Q 96.207 547.693 97.270 547.875 "></path>
    <path id="STROKE_c5997687-f972-4660-a934-750426029e90" opacity="1.000" fill="none" stroke="#000000" stroke-width="2.720" stroke-opacity="1.000" stroke-linecap="round" stroke-linejoin="round" d="M 137.346 526.085 Q 137.282 525.946 137.365 526.029 Q 137.449 526.111 137.378 525.910 Q 137.308 525.708 137.274 525.670 Q 137.241 525.631 137.038 525.560 Q 136.836 525.488 136.536 525.497 Q 136.236 525.506 135.931 525.494 Q 135.627 525.483 134.636 525.978 Q 133.645 526.474 132.727 527.214 Q 131.810 527.954 130.984 528.948 Q 130.158 529.942 129.750 531.243 Q 129.341 532.545 129.299 533.871 Q 129.257 535.196 129.323 536.120 Q 129.388 537.044 129.954 538.084 Q 130.521 539.124 134.059 541.544 "></path>
    <path id="STROKE_18945622-a7f6-48e4-b639-f26b25497287" opacity="1.000" fill="none" stroke="#000000" stroke-width="2.720" stroke-opacity="1.000" stroke-linecap="round" stroke-linejoin="round" d="M 138.558 536.533 Q 138.706 536.578 139.275 536.436 Q 139.844 536.295 140.323 536.357 Q 140.803 536.419 141.020 536.961 Q 141.238 537.504 141.334 538.125 Q 141.431 538.747 140.536 539.850 Q 139.642 540.953 138.959 541.625 Q 138.276 542.298 137.933 542.720 Q 137.590 543.142 137.628 543.742 Q 137.896 544.127 143.081 543.141 "></path>
    <path id="STROKE_0c342692-54b7-4433-9160-364fdba5a2c0" opacity="1.000" fill="none" stroke="#000000" stroke-width="2.720" stroke-opacity="1.000" stroke-linecap="round" stroke-linejoin="round" d="M 21.213 587.098 Q 21.848 587.098 21.702 587.098 Q 22.360 587.089 22.151 587.078 Q 21.720 587.683 23.741 585.378 Q 25.762 583.073 27.250 581.367 Q 28.738 579.660 30.428 578.709 Q 30.889 578.716 29.953 580.661 Q 29.018 582.605 28.453 583.919 Q 27.888 585.232 27.499 588.225 Q 27.110 591.218 28.340 595.527 L 28.362 595.527 Q 28.454 595.360 27.118 595.921 Q 25.782 596.483 23.660 598.297 Q 24.237 598.297 24.213 598.297 Q 25.031 598.436 26.993 598.041 Q 28.955 597.646 31.387 597.037 "></path>
    <path id="STROKE_01f857c4-37ab-4839-bf56-71803ac6511a" opacity="1.000" fill="none" stroke="#000000" stroke-width="2.720" stroke-opacity="1.000" stroke-linecap="round" stroke-linejoin="round" d="M -27.721 579.889 Q -27.712 580.248 -29.471 581.102 Q -31.230 581.956 -32.444 582.770 Q -33.657 583.583 -34.190 584.128 Q -34.724 584.672 -34.864 585.981 Q -35.005 587.290 -34.991 588.474 Q -34.977 589.658 -33.962 590.838 Q -32.946 592.017 -32.120 592.619 Q -31.294 593.220 -30.259 593.540 Q -29.224 593.860 -27.841 593.968 Q -26.458 594.075 -25.016 593.770 Q -23.574 593.465 -22.364 592.748 Q -21.155 592.031 -20.220 590.960 Q -19.285 589.888 -18.898 588.510 Q -18.511 587.132 -18.587 586.090 Q -18.664 585.049 -19.165 584.294 Q -19.666 583.540 -21.424 582.880 Q -23.183 582.221 -25.053 582.060 Q -26.923 581.899 -28.058 581.822 Q -29.193 581.745 -30.340 582.534 "></path>
    <path id="STROKE_b2ffde83-486c-4897-9ea7-13743fddd319" opacity="1.000" fill="none" stroke="#000000" stroke-width="2.720" stroke-opacity="1.000" stroke-linecap="round" stroke-linejoin="round" d="M -17.910 630.510 Q -18.136 630.492 -19.895 631.010 Q -21.653 631.527 -23.126 632.613 Q -24.599 633.699 -25.633 634.925 Q -26.667 636.150 -26.873 638.457 Q -27.080 640.763 -27.025 642.235 Q -26.971 643.707 -26.783 644.351 Q -26.595 644.996 -26.267 645.756 Q -25.939 646.515 -25.077 646.814 Q -24.216 647.112 -22.994 646.781 Q -21.772 646.449 -20.408 645.065 Q -19.044 643.681 -18.303 642.558 Q -17.563 641.435 -17.184 640.061 Q -16.804 638.687 -16.676 636.854 Q -16.547 635.021 -17.488 634.188 Q -18.429 633.354 -20.151 633.079 Q -21.874 632.805 -22.831 632.821 Q -23.789 632.837 -24.749 632.918 Q -25.709 633.000 -26.165 635.891 "></path>
    <path id="STROKE_cb59239f-8160-4ac5-84c9-810417cb670c" opacity="1.000" fill="none" stroke="#000000" stroke-width="2.714" stroke-opacity="1.000" stroke-linecap="round" stroke-linejoin="round" d="M 21.049 630.919 Q 21.049 630.879 21.049 630.655 Q 20.717 630.003 18.939 631.331 Q 17.161 632.660 16.267 633.804 Q 15.373 634.948 14.887 635.685 Q 14.401 636.421 13.790 638.020 Q 13.180 639.618 13.213 640.648 Q 13.246 641.678 13.443 642.616 Q 13.639 643.555 14.820 644.300 Q 16.001 645.044 17.654 645.147 Q 19.307 645.251 20.934 644.701 Q 22.560 644.151 23.931 643.191 Q 25.303 642.231 26.173 641.167 Q 27.043 640.103 27.395 639.075 Q 27.748 638.047 27.823 637.066 Q 27.899 636.086 27.142 634.918 Q 26.385 633.750 24.766 632.791 Q 23.146 631.833 21.934 631.333 Q 20.721 630.833 19.299 630.584 Q 17.877 630.335 15.975 631.084 "></path>
    <path id="STROKE_30e9205b-4c6e-4090-adf7-c3a857154006" opacity="1.000" fill="none" stroke="#000000" stroke-width="2.692" stroke-opacity="1.000" stroke-linecap="round" stroke-linejoin="round" d="M 127.349 630.284 Q 127.860 630.303 126.857 630.039 Q 125.853 629.775 125.069 629.416 Q 124.285 629.058 122.963 630.251 Q 121.640 631.444 120.793 633.251 Q 119.946 635.059 119.684 637.091 Q 119.421 639.122 119.568 640.680 Q 119.715 642.237 120.494 643.249 Q 121.273 644.261 122.303 644.618 Q 123.333 644.974 124.799 644.969 Q 126.265 644.963 127.540 643.305 Q 128.814 641.647 129.484 640.548 Q 130.153 639.449 130.620 636.698 Q 131.086 633.947 131.159 630.670 Q 131.232 627.393 125.116 615.320 Q 125.149 615.421 125.161 615.407 Q 125.173 615.393 125.080 615.352 Q 124.986 615.310 125.817 617.103 Q 126.648 618.896 127.287 620.252 Q 127.927 621.607 128.406 621.903 Q 128.886 622.199 129.628 623.501 Q 130.370 624.804 130.794 626.769 Q 131.218 628.734 131.802 630.843 Q 132.386 632.952 133.338 637.422 Q 134.290 641.892 134.321 646.886 Q 134.701 646.748 134.812 646.022 Q 134.922 645.296 134.900 644.885 Q 134.877 644.473 133.973 643.790 "></path>
    <path id="STROKE_8ca6c708-fe6f-46b6-87ee-d97b1cbe5d78" opacity="1.000" fill="none" stroke="#bb434e" stroke-width="2.720" stroke-opacity="1.000" stroke-linecap="round" stroke-linejoin="round" d="M 82.415 579.637 Q 81.983 579.497 80.485 579.168 Q 78.988 578.840 77.171 579.121 Q 75.353 579.402 74.323 579.948 Q 73.293 580.495 72.877 580.797 Q 72.461 581.100 72.426 582.424 Q 72.392 583.749 72.351 585.065 Q 72.310 586.380 72.991 587.642 Q 73.673 588.904 74.662 589.831 Q 75.652 590.759 77.234 591.172 Q 78.816 591.586 80.216 591.367 Q 81.616 591.148 82.701 590.437 Q 83.786 589.725 84.600 588.775 Q 85.413 587.825 85.806 586.551 Q 86.199 585.278 86.133 584.443 Q 86.066 583.607 85.684 582.827 Q 85.301 582.047 84.325 581.526 Q 83.349 581.004 82.538 581.012 Q 81.726 581.020 81.496 581.336 Q 81.266 581.653 81.139 582.794 Q 81.013 583.935 81.115 584.669 Q 81.217 585.402 81.497 586.059 Q 81.777 586.715 82.526 587.550 Q 83.275 588.385 83.767 588.734 Q 84.259 589.082 85.923 589.969 Q 87.587 590.855 92.610 590.325 L 92.632 590.223 Q 92.489 590.164 91.612 590.059 "></path>
    <path id="STROKE_eba29381-89ea-46e4-9b82-1cebb7050eb8" opacity="1.000" fill="none" stroke="#bb434e" stroke-width="2.720" stroke-opacity="1.000" stroke-linecap="round" stroke-linejoin="round" d="M 124.356 576.458 Q 124.227 575.835 124.248 575.970 Q 124.145 575.352 124.170 575.459 Q 124.036 574.834 124.071 574.892 Q 124.007 574.495 123.984 573.813 Q 124.472 574.220 124.395 574.298 Q 124.867 574.632 126.724 589.102 Q 126.664 589.213 126.695 589.200 Q 126.726 589.188 126.768 589.158 Q 126.811 589.129 126.988 588.890 Q 127.165 588.651 127.272 588.454 Q 127.380 588.258 127.555 587.981 Q 127.730 587.705 128.210 587.012 Q 128.690 586.318 129.762 585.755 Q 130.834 585.191 131.922 585.197 Q 133.010 585.202 133.703 585.719 Q 134.395 586.236 134.747 587.183 Q 135.099 588.130 135.175 588.874 Q 135.252 589.618 133.801 590.853 Q 132.350 592.089 130.832 592.692 Q 129.315 593.294 128.107 593.442 Q 126.899 593.590 126.463 592.714 Q 126.027 591.838 125.497 590.916 "></path>
    <path id="STROKE_268a8f81-1ada-4a10-a8bc-4a1560b5bf98" opacity="1.000" fill="none" stroke="#bb434e" stroke-width="2.690" stroke-opacity="1.000" stroke-linecap="round" stroke-linejoin="round" d="M 85.025 628.220 Q 84.451 627.938 82.930 628.354 Q 81.410 628.769 80.404 629.396 Q 79.399 630.023 78.585 630.556 Q 77.771 631.089 77.393 632.041 Q 77.014 632.993 76.868 633.742 Q 76.722 634.492 77.546 635.213 Q 78.370 635.933 78.900 636.332 Q 79.430 636.730 81.011 637.069 Q 82.593 637.408 84.429 637.519 Q 86.266 637.630 91.054 636.735 Q 90.955 636.735 89.771 636.814 "></path>
    <path id="STROKE_d47ac3ac-60e8-4c68-aa32-143b76c6a066" opacity="1.000" fill="none" stroke="#000000" stroke-width="2.720" stroke-opacity="1.000" stroke-linecap="round" stroke-linejoin="round" d="M -32.426 693.202 Q -32.293 693.212 -33.539 693.900 Q -32.478 693.194 -31.294 692.413 Q -30.109 691.632 -28.610 690.456 Q -27.110 689.280 -20.853 682.014 Q -20.853 682.690 -20.853 682.725 Q -20.853 682.759 -20.856 682.744 Q -20.859 682.729 -20.775 682.994 Q -20.691 683.260 -21.186 689.622 Q -21.680 695.984 -21.230 702.843 Q -21.144 702.872 -20.853 702.872 Q -20.853 702.843 -20.853 702.437 Q -20.861 701.861 -22.546 703.029 Q -24.231 704.196 -25.415 705.021 Q -26.599 705.846 -28.395 706.014 Q -28.583 706.016 -23.406 705.751 Q -18.229 705.486 -12.607 704.910 "></path>
    <path id="STROKE_ac041b73-c4fc-4fa8-a0c1-a69cf7912dba" opacity="1.000" fill="none" stroke="#000000" stroke-width="2.424" stroke-opacity="1.000" stroke-linecap="round" stroke-linejoin="round" d="M 37.208 685.570 Q 36.086 685.417 34.092 684.979 Q 32.098 684.540 30.703 684.594 Q 29.307 684.648 27.942 686.190 Q 26.576 687.731 25.837 689.009 Q 25.097 690.286 24.521 693.536 Q 23.945 696.787 24.073 698.568 Q 24.200 700.349 24.543 701.927 Q 24.887 703.505 26.728 704.115 Q 28.569 704.725 30.573 704.429 Q 32.578 704.134 34.875 702.699 Q 37.172 701.264 39.139 699.858 Q 41.106 698.452 42.579 696.485 Q 44.052 694.517 44.864 692.582 Q 45.675 690.647 45.924 689.409 Q 46.173 688.171 46.149 687.392 Q 46.125 686.614 44.803 685.657 Q 43.481 684.701 40.931 684.387 Q 38.381 684.073 35.488 684.576 Q 32.595 685.078 30.545 685.878 Q 28.496 686.677 27.085 687.609 Q 25.673 688.542 24.819 690.985 "></path>
    <path id="STROKE_0763a57d-0678-47b0-a772-b89229b5392b" opacity="1.000" fill="none" stroke="#000000" stroke-width="2.720" stroke-opacity="1.000" stroke-linecap="round" stroke-linejoin="round" d="M -18.628 737.361 Q -18.947 736.857 -20.460 736.755 Q -21.974 736.654 -23.636 737.601 Q -25.299 738.549 -26.513 739.792 Q -27.728 741.036 -28.200 742.706 Q -28.671 744.376 -28.568 745.653 Q -28.465 746.929 -27.657 748.103 Q -26.849 749.276 -24.814 749.638 Q -22.779 750.000 -21.101 749.834 Q -19.423 749.667 -17.711 748.381 Q -15.999 747.096 -15.079 745.789 Q -14.158 744.483 -13.880 742.713 Q -13.602 740.943 -13.984 739.626 Q -14.366 738.309 -15.958 737.503 Q -17.550 736.696 -19.917 736.415 Q -22.284 736.134 -23.458 736.118 Q -24.632 736.102 -25.514 736.490 Q -26.397 736.877 -26.383 737.593 Q -26.368 738.309 -26.096 738.737 Q -25.823 739.164 -25.667 739.237 Q -25.510 739.310 -25.122 739.517 Q -24.733 739.723 -23.206 739.920 Q -21.678 740.117 -19.568 740.041 "></path>
    <path id="STROKE_235e09df-1b0c-4aa1-bb4f-9f4bb14ee36a" opacity="1.000" fill="none" stroke="#000000" stroke-width="2.627" stroke-opacity="1.000" stroke-linecap="round" stroke-linejoin="round" d="M 24.696 739.919 Q 25.319 740.514 24.931 736.980 Q 24.532 736.664 23.011 736.985 Q 21.490 737.307 20.001 739.153 Q 18.513 740.998 17.680 742.927 Q 16.848 744.857 16.588 746.938 Q 16.329 749.019 16.416 750.417 Q 16.502 751.815 17.091 752.479 Q 17.680 753.142 19.406 753.374 Q 21.133 753.606 23.016 752.769 Q 24.899 751.932 26.827 750.250 Q 28.755 748.568 30.327 746.810 Q 31.899 745.052 32.669 743.204 Q 33.440 741.356 33.545 740.188 Q 33.649 739.019 33.568 738.218 Q 33.487 737.417 32.771 736.718 Q 32.056 736.020 29.782 735.540 Q 27.507 735.059 25.531 735.106 Q 23.555 735.153 22.179 735.536 Q 20.802 735.920 19.812 736.848 Q 18.822 737.777 18.378 738.780 Q 17.934 739.784 17.512 741.145 "></path>
    <path id="STROKE_1598f778-9223-448f-9bb3-23285ad97f34" opacity="1.000" fill="none" stroke="#000000" stroke-width="2.669" stroke-opacity="1.000" stroke-linecap="round" stroke-linejoin="round" d="M -26.108 792.936 Q -26.160 793.183 -25.843 792.563 Q -25.526 791.944 -25.533 790.135 Q -25.874 790.082 -26.380 789.933 Q -26.886 789.785 -28.566 790.798 Q -30.247 791.810 -31.520 793.062 Q -32.794 794.315 -33.796 796.031 Q -34.798 797.747 -35.067 799.754 Q -35.336 801.761 -34.921 803.125 Q -34.505 804.489 -33.188 805.716 Q -31.871 806.944 -29.747 807.353 Q -27.624 807.762 -25.501 807.210 Q -23.378 806.658 -22.403 806.155 Q -21.428 805.652 -19.961 804.368 Q -18.495 803.084 -17.517 801.733 Q -16.539 800.381 -16.176 799.164 Q -15.813 797.947 -15.899 796.904 Q -15.986 795.862 -17.024 795.048 Q -18.062 794.234 -21.211 793.911 Q -24.359 793.587 -27.078 793.599 Q -29.796 793.610 -32.315 795.002 Q -32.581 795.692 -28.915 796.078 "></path>
    <path id="STROKE_54991dbe-6f9a-4d7c-8c86-0e75ef758391" opacity="1.000" fill="none" stroke="#000000" stroke-width="2.563" stroke-opacity="1.000" stroke-linecap="round" stroke-linejoin="round" d="M 25.574 789.786 Q 26.148 789.424 26.043 788.215 Q 26.102 788.173 24.630 788.102 Q 23.158 788.030 21.409 789.702 Q 19.659 791.373 18.993 794.132 Q 18.326 796.891 18.299 798.639 Q 18.271 800.388 18.547 802.108 Q 18.823 803.829 20.494 804.260 Q 22.165 804.690 24.420 804.577 Q 26.674 804.464 29.154 802.120 Q 31.634 799.776 33.219 797.488 Q 34.804 795.200 35.346 793.855 Q 35.887 792.510 36.214 790.713 Q 36.541 788.915 36.533 787.723 Q 36.525 786.531 36.094 785.344 Q 35.663 784.157 34.006 783.328 Q 32.348 782.499 30.053 782.445 Q 27.757 782.390 25.163 782.773 Q 22.569 783.156 18.440 787.805 "></path>
    <path id="STROKE_117c41e8-abc8-46aa-8994-dd26db9501bf" opacity="1.000" fill="none" stroke="#bb434e" stroke-width="2.600" stroke-opacity="1.000" stroke-linecap="round" stroke-linejoin="round" d="M 83.231 682.540 Q 83.156 682.471 82.719 681.939 Q 82.282 681.406 81.303 681.258 Q 80.324 681.111 79.162 681.403 Q 78.000 681.694 76.339 682.851 Q 74.678 684.008 73.750 684.807 Q 72.823 685.606 72.226 686.468 Q 71.630 687.330 71.535 688.382 Q 71.441 689.434 71.721 690.455 Q 72.000 691.475 72.872 692.536 Q 73.744 693.597 74.729 694.207 Q 75.713 694.817 76.661 695.037 Q 77.609 695.257 78.614 695.315 Q 79.619 695.374 81.226 694.761 Q 82.833 694.148 84.070 693.429 Q 85.306 692.710 86.477 691.556 Q 87.649 690.402 88.299 689.399 Q 88.950 688.396 89.185 687.385 Q 89.420 686.373 89.433 685.702 Q 89.447 685.031 88.597 684.408 Q 87.748 683.786 86.094 683.602 Q 84.439 683.418 83.411 683.473 Q 82.383 683.529 81.780 683.737 Q 81.176 683.945 80.728 684.138 Q 80.279 684.330 79.970 684.955 Q 79.660 685.580 79.694 686.441 Q 79.728 687.301 80.244 688.321 Q 80.761 689.342 81.508 690.152 Q 82.256 690.962 83.600 691.715 Q 84.944 692.468 86.794 692.824 Q 88.644 693.181 90.768 693.132 Q 92.891 693.083 97.924 691.516 "></path>
    <path id="STROKE_2ba67a63-db7a-41e4-8336-8a4e1bf8e741" opacity="1.000" fill="none" stroke="#bb434e" stroke-width="2.688" stroke-opacity="1.000" stroke-linecap="round" stroke-linejoin="round" d="M 123.102 680.696 Q 123.102 680.252 123.102 678.890 Q 123.150 679.516 123.128 679.422 Q 123.107 679.328 123.676 680.870 Q 124.246 682.412 124.676 684.776 Q 125.107 687.140 125.194 688.919 Q 125.281 690.698 125.316 692.141 Q 125.351 693.583 125.276 694.638 Q 125.202 695.693 124.392 696.354 Q 124.258 696.160 124.436 695.021 Q 124.613 693.882 125.326 692.861 Q 126.038 691.840 127.010 690.859 Q 127.981 689.879 128.957 689.229 Q 129.934 688.579 130.754 688.357 Q 131.575 688.135 132.446 688.392 Q 133.318 688.649 133.591 690.032 Q 133.864 691.414 133.637 692.620 Q 133.409 693.826 131.808 696.063 Q 130.207 698.301 127.989 700.140 Q 127.925 700.014 127.934 699.416 Q 127.942 698.818 127.847 698.272 Q 127.753 697.727 127.465 697.629 Q 127.176 697.531 126.294 697.710 "></path>
    <path id="STROKE_900d0d00-c7ac-48a8-9a90-9e384bbcbb9c" opacity="1.000" fill="none" stroke="#bb434e" stroke-width="2.720" stroke-opacity="1.000" stroke-linecap="round" stroke-linejoin="round" d="M 82.157 737.266 Q 81.672 736.875 80.815 736.427 Q 79.958 735.978 78.981 736.151 Q 78.003 736.324 77.235 737.440 Q 76.467 738.557 76.093 739.414 Q 75.720 740.271 75.592 741.021 Q 75.463 741.770 75.429 742.645 Q 75.394 743.520 75.419 744.404 Q 75.444 745.287 75.703 746.173 Q 75.962 747.058 77.033 747.751 Q 78.104 748.445 79.085 748.665 Q 80.065 748.885 81.436 748.964 Q 82.808 749.043 84.039 748.927 Q 85.271 748.810 87.432 747.782 "></path>
    <path id="STROKE_4f7b3ed5-8ad6-4cb6-8adf-c8f9cede4a6a" opacity="1.000" fill="none" stroke="#000000" stroke-width="2.720" stroke-opacity="1.000" stroke-linecap="round" stroke-linejoin="round" d="M 120.510 737.192 Q 120.545 737.440 120.076 736.053 Q 120.093 736.219 120.055 740.554 Q 120.016 744.888 120.229 749.634 Q 120.261 749.650 120.375 749.650 Q 120.338 749.477 120.717 747.319 Q 121.095 745.162 121.654 743.721 Q 122.214 742.281 122.575 741.576 Q 122.936 740.871 123.423 740.368 Q 123.911 739.865 124.599 739.751 Q 125.286 739.637 128.813 738.580 L 128.813 738.564 Q 128.684 738.564 127.775 738.564 "></path>
    <path id="STROKE_d7f2d9ac-f373-40b2-9fac-3481649b0c68" opacity="1.000" fill="none" stroke="#000000" stroke-width="2.623" stroke-opacity="1.000" stroke-linecap="round" stroke-linejoin="round" d="M 73.822 784.883 Q 73.927 784.683 74.191 783.982 Q 74.209 783.982 74.227 783.982 Q 74.227 784.662 74.227 784.633 Q 74.296 785.108 74.194 789.834 Q 74.091 794.560 74.067 797.359 Q 74.043 800.157 74.047 801.410 Q 74.052 802.663 74.197 803.302 Q 74.342 803.942 74.635 804.193 Q 74.929 804.444 75.643 804.370 Q 76.356 804.296 76.993 803.612 Q 77.631 802.928 77.987 800.460 "></path>
    <path id="STROKE_b792e631-27ea-4b45-8bd8-bbd250215a8e" opacity="1.000" fill="none" stroke="#000000" stroke-width="2.720" stroke-opacity="1.000" stroke-linecap="round" stroke-linejoin="round" d="M 70.125 792.721 Q 69.725 792.770 69.800 792.072 Q 69.875 791.375 70.803 790.745 Q 71.730 790.115 72.626 789.585 Q 73.522 789.055 74.978 788.821 Q 76.434 788.586 77.579 788.473 Q 78.724 788.360 79.935 790.279 "></path>
    <path id="STROKE_50c0c561-28a9-4f20-aec4-862b4fd390b4" opacity="1.000" fill="none" stroke="#000000" stroke-width="2.720" stroke-opacity="1.000" stroke-linecap="round" stroke-linejoin="round" d="M 119.806 787.161 Q 119.529 787.248 120.190 789.059 Q 120.852 790.870 121.579 792.284 Q 122.307 793.697 122.697 794.274 Q 123.087 794.851 123.632 795.260 Q 124.176 795.668 124.681 795.567 Q 125.185 795.467 126.154 793.513 Q 127.123 791.560 127.743 790.466 Q 128.363 789.373 128.786 788.698 Q 129.208 788.024 131.688 783.511 Q 132.094 783.511 132.061 783.511 Q 132.381 783.511 132.395 783.511 Q 132.410 783.511 132.427 783.512 Q 132.444 783.514 132.451 783.505 Q 132.459 783.497 132.601 783.519 Q 132.743 783.541 132.787 783.729 Q 132.831 783.918 132.670 784.175 Q 132.509 784.433 132.323 784.530 Q 132.138 784.627 132.006 784.725 Q 131.874 784.823 131.782 784.881 Q 131.690 784.939 131.515 785.051 Q 131.339 785.163 130.931 785.453 "></path>
    <path id="STROKE_62c48e53-df54-47ee-a933-700411fd77da" opacity="1.000" fill="none" stroke="#bb434e" stroke-width="2.594" stroke-opacity="1.000" stroke-linecap="round" stroke-linejoin="round" d="M 234.052 589.335 Q 232.148 588.583 232.628 588.874 Q 231.758 588.555 228.807 589.202 Q 225.857 589.849 223.494 591.184 Q 221.131 592.520 219.544 594.041 Q 217.957 595.563 217.169 597.302 Q 216.380 599.040 216.608 601.026 Q 216.836 603.012 217.982 604.550 Q 219.128 606.089 220.579 607.587 Q 222.030 609.086 224.519 611.418 Q 227.008 613.750 228.347 615.114 Q 229.687 616.477 230.415 617.553 Q 231.143 618.628 231.080 619.808 Q 231.017 620.989 227.545 623.150 Q 224.072 625.311 221.645 626.568 Q 219.217 627.825 217.924 628.292 Q 216.630 628.760 215.607 628.571 Q 214.583 628.382 215.274 626.379 Q 215.964 624.376 221.184 620.074 "></path>
    <path id="STROKE_a5d527f7-191b-4355-9acb-1afa854e532c" opacity="1.000" fill="none" stroke="#bb434e" stroke-width="2.685" stroke-opacity="1.000" stroke-linecap="round" stroke-linejoin="round" d="M 242.738 615.449 Q 242.738 614.561 242.738 614.822 Q 242.738 614.721 242.738 614.592 Q 242.675 614.826 243.162 617.650 Q 243.650 620.474 244.597 622.323 Q 245.544 624.171 246.496 625.286 Q 247.447 626.400 249.015 626.642 Q 250.583 626.884 251.864 626.706 Q 253.145 626.528 255.304 623.626 Q 257.462 620.724 257.843 614.988 Q 257.078 616.051 257.310 616.144 Q 256.981 616.118 257.738 619.614 "></path>
    <path id="STROKE_e0317ce1-d4f2-497a-9f51-33db728fd9e7" opacity="1.000" fill="none" stroke="#bb434e" stroke-width="2.302" stroke-opacity="1.000" stroke-linecap="round" stroke-linejoin="round" d="M 272.809 616.177 Q 272.335 616.459 270.607 626.483 Q 268.878 636.507 268.192 651.647 Q 268.129 651.680 268.059 651.680 Q 268.150 651.690 267.976 648.005 Q 267.802 644.320 268.797 638.331 Q 269.792 632.341 270.854 627.729 Q 271.915 623.117 272.755 621.103 Q 273.595 619.089 274.111 617.958 Q 274.627 616.827 275.350 616.277 Q 276.074 615.728 276.423 615.561 Q 276.773 615.395 277.330 616.032 Q 277.887 616.669 278.011 617.811 Q 278.135 618.953 278.210 620.128 Q 278.284 621.303 278.238 623.197 Q 278.192 625.090 277.096 627.954 Q 276.000 630.818 273.237 632.643 Q 272.806 632.581 273.468 630.127 "></path>
    <path id="STROKE_18219ef2-2cb4-40e5-8d81-61d0071f0ee3" opacity="1.000" fill="none" stroke="#bb434e" stroke-width="2.628" stroke-opacity="1.000" stroke-linecap="round" stroke-linejoin="round" d="M 291.920 623.051 Q 291.854 622.995 294.907 620.899 Q 297.960 618.804 299.866 617.218 Q 301.772 615.632 302.650 614.502 Q 303.527 613.372 303.680 612.716 Q 303.832 612.060 303.769 611.349 Q 303.706 610.639 301.843 610.509 Q 299.981 610.379 297.917 610.898 Q 295.854 611.418 294.025 613.307 Q 292.196 615.196 291.122 617.231 Q 290.048 619.266 289.767 620.916 Q 289.486 622.566 289.438 623.713 Q 289.390 624.860 290.288 626.129 Q 291.186 627.398 294.064 627.961 Q 296.942 628.525 299.446 628.290 Q 301.950 628.055 303.973 627.377 Q 305.996 626.698 308.043 624.377 "></path>
    <path id="STROKE_7c82bb1c-e532-486a-a357-1f45d5f47b7a" opacity="1.000" fill="none" stroke="#bb434e" stroke-width="2.720" stroke-opacity="1.000" stroke-linecap="round" stroke-linejoin="round" d="M 323.296 610.685 Q 323.497 610.911 322.892 610.636 Q 322.286 610.362 321.620 611.036 Q 320.953 611.711 320.682 613.874 Q 320.411 616.038 320.410 618.030 Q 320.409 620.022 320.353 620.955 Q 320.297 621.887 320.816 622.734 Q 321.336 623.580 322.369 623.478 Q 323.403 623.376 325.594 619.279 Q 327.786 615.181 329.148 612.576 Q 330.510 609.971 331.533 607.451 Q 331.624 607.285 331.451 607.822 Q 331.277 608.360 332.193 611.348 "></path>
    <path id="STROKE_91c94e87-2951-4408-8487-e5d7a316929d" opacity="1.000" fill="none" stroke="#bb434e" stroke-width="2.434" stroke-opacity="1.000" stroke-linecap="round" stroke-linejoin="round" d="M 217.466 721.893 Q 217.258 721.123 216.376 719.718 Q 215.495 718.314 214.868 717.553 Q 214.241 716.792 213.001 716.625 Q 211.761 716.458 210.517 716.565 Q 209.273 716.672 206.092 718.620 Q 202.911 720.569 200.536 722.994 Q 198.162 725.419 196.855 727.446 Q 195.548 729.473 195.106 731.742 Q 194.664 734.010 195.498 736.863 Q 196.332 739.715 197.663 741.634 Q 198.993 743.552 201.504 746.201 Q 204.014 748.850 205.452 750.220 Q 206.889 751.590 207.364 752.617 Q 207.838 753.644 208.165 754.861 Q 208.493 756.078 205.835 758.096 Q 203.177 760.114 200.878 761.426 Q 198.578 762.738 196.033 763.906 Q 193.487 765.075 190.784 764.174 Q 190.096 762.679 191.130 760.262 Q 192.164 757.846 193.445 756.511 Q 194.726 755.175 200.473 751.444 "></path>
    <path id="STROKE_75716943-a930-4d51-a5b6-9038d57f1be8" opacity="1.000" fill="none" stroke="#bb434e" stroke-width="2.658" stroke-opacity="1.000" stroke-linecap="round" stroke-linejoin="round" d="M 220.974 746.293 Q 221.161 746.105 220.512 746.269 Q 219.863 746.433 219.100 746.350 Q 218.337 746.267 218.190 748.671 Q 218.044 751.075 218.208 752.712 Q 218.373 754.349 219.407 755.716 Q 220.440 757.083 222.534 757.553 Q 224.629 758.023 226.676 757.689 Q 228.723 757.355 229.968 756.463 Q 231.214 755.570 233.082 754.074 Q 234.951 752.578 237.363 745.565 Q 237.424 745.167 236.527 747.934 Q 235.630 750.701 235.584 752.627 Q 235.539 754.552 235.993 755.809 Q 236.447 757.066 241.082 757.397 "></path>
    <path id="STROKE_896e959c-0f11-4999-8a46-3177d5e65534" opacity="1.000" fill="none" stroke="#bb434e" stroke-width="2.049" stroke-opacity="1.000" stroke-linecap="round" stroke-linejoin="round" d="M 254.019 744.174 Q 254.202 745.279 253.438 752.236 Q 252.673 759.193 251.328 764.574 Q 249.982 769.955 248.920 774.779 Q 247.857 779.604 242.008 794.687 Q 241.112 793.846 243.497 784.833 Q 245.882 775.820 248.014 768.645 Q 250.146 761.470 251.881 756.867 Q 253.617 752.265 254.557 750.078 Q 255.497 747.892 256.198 746.631 Q 256.898 745.371 257.751 744.270 Q 258.604 743.169 259.678 742.526 Q 260.752 741.883 261.614 742.080 Q 262.475 742.277 263.683 744.046 Q 264.891 745.816 265.402 747.755 Q 265.913 749.693 265.733 752.079 Q 265.553 754.465 265.030 755.859 Q 264.506 757.252 263.155 759.510 Q 261.805 761.768 260.401 763.356 Q 258.997 764.944 257.703 765.744 Q 256.409 766.543 255.162 766.601 Q 253.915 766.660 253.219 766.299 Q 252.522 765.939 252.374 763.585 Q 252.225 761.231 253.893 756.466 "></path>
    <path id="STROKE_3cbf3ca1-d804-4fee-bbd6-e9d71170b9a0" opacity="1.000" fill="none" stroke="#bb434e" stroke-width="2.452" stroke-opacity="1.000" stroke-linecap="round" stroke-linejoin="round" d="M 282.828 753.103 Q 283.213 752.542 285.893 749.330 Q 288.573 746.118 290.583 743.890 Q 292.593 741.662 293.143 739.401 Q 293.693 737.139 293.685 736.043 Q 293.677 734.948 293.617 734.118 Q 293.557 733.289 291.921 733.039 Q 290.286 732.789 288.743 733.130 Q 287.200 733.471 286.116 734.243 Q 285.032 735.014 283.164 737.576 Q 281.295 740.139 279.987 742.896 Q 278.680 745.654 278.336 748.731 Q 277.993 751.809 278.007 753.604 Q 278.021 755.398 278.287 756.612 Q 278.554 757.826 279.606 758.896 Q 280.659 759.966 283.114 760.095 Q 285.570 760.224 287.212 760.113 Q 288.854 760.002 290.035 759.103 Q 291.216 758.205 292.017 757.352 Q 292.819 756.500 293.913 753.628 "></path>
    <path id="STROKE_7a42abda-cf32-4f48-89a9-72d12350d5c5" opacity="1.000" fill="none" stroke="#bb434e" stroke-width="2.538" stroke-opacity="1.000" stroke-linecap="round" stroke-linejoin="round" d="M 304.928 736.240 Q 304.698 736.303 304.064 736.161 Q 303.429 736.020 303.028 735.904 Q 302.627 735.788 302.727 735.871 Q 302.826 735.953 302.795 735.830 Q 302.764 735.706 302.369 736.276 Q 301.974 736.847 301.445 741.468 Q 300.916 746.089 300.739 749.984 Q 300.562 753.879 301.308 757.268 Q 302.808 756.306 302.806 756.155 Q 302.804 756.005 304.141 752.433 Q 305.478 748.861 306.608 745.470 Q 307.737 742.080 308.896 739.426 Q 310.055 736.772 311.888 734.784 Q 312.050 734.603 312.491 738.286 "></path>
    <path id="STROKE_196a21df-55c7-4b52-b341-59b65dd628ba" opacity="1.000" fill="none" stroke="#bb434e" stroke-width="2.224" stroke-opacity="1.000" stroke-linecap="round" stroke-linejoin="round" d="M 351.655 583.816 Q 351.289 583.579 352.348 578.067 Q 353.060 578.415 353.325 582.331 Q 353.590 586.248 353.103 591.437 Q 352.616 596.626 352.371 599.676 Q 352.127 602.726 352.038 604.166 Q 351.950 605.606 351.917 609.195 Q 351.885 612.784 351.853 616.168 Q 351.821 619.553 352.000 621.935 Q 352.178 624.318 352.663 626.050 Q 352.738 626.068 352.793 626.050 Q 353.362 625.613 351.655 607.744 "></path>
    <path id="STROKE_c8ec06de-0e83-45a4-99d8-1a9460eaf1cf" opacity="1.000" fill="none" stroke="#bb434e" stroke-width="2.524" stroke-opacity="1.000" stroke-linecap="round" stroke-linejoin="round" d="M 351.734 591.308 Q 351.891 590.923 351.699 589.946 Q 351.507 588.970 352.152 588.126 Q 352.797 587.282 354.203 586.662 Q 355.608 586.041 357.466 585.822 Q 359.324 585.604 360.728 585.701 Q 362.131 585.799 363.231 586.325 Q 364.330 586.851 365.358 587.771 Q 366.385 588.692 367.110 590.100 Q 367.835 591.508 368.082 592.904 Q 368.328 594.301 368.377 595.801 Q 368.427 597.302 367.499 599.937 Q 366.571 602.572 365.893 604.192 Q 365.215 605.812 363.652 608.265 Q 362.090 610.718 361.218 611.973 Q 360.347 613.229 359.699 613.932 Q 359.052 614.635 358.535 614.919 Q 358.019 615.202 357.505 615.176 Q 356.992 615.150 356.533 613.951 Q 356.074 612.753 356.108 611.322 Q 356.297 610.967 357.953 611.405 Q 359.610 611.843 361.287 613.526 Q 362.965 615.209 364.067 616.272 Q 365.170 617.334 366.087 618.099 Q 367.004 618.863 369.121 619.174 Q 371.238 619.484 373.701 618.853 Q 373.787 618.862 372.953 618.276 "></path>
    <path id="STROKE_33864df4-a4b1-46a1-8d54-d3ba2ad97166" opacity="1.000" fill="none" stroke="#bb434e" stroke-width="2.580" stroke-opacity="1.000" stroke-linecap="round" stroke-linejoin="round" d="M 386.842 609.451 Q 386.513 609.533 385.559 609.445 Q 384.605 609.358 384.156 609.428 Q 383.708 609.498 383.222 609.959 Q 382.735 610.420 382.228 611.609 Q 381.721 612.797 381.559 614.117 Q 381.396 615.437 381.449 616.631 Q 381.502 617.824 381.854 618.649 Q 382.206 619.473 382.742 620.392 Q 383.279 621.311 384.276 621.818 Q 385.273 622.324 386.121 622.322 Q 386.969 622.319 387.704 622.303 Q 388.439 622.287 389.861 621.431 Q 391.284 620.574 392.370 619.477 Q 393.457 618.379 394.703 616.725 Q 395.949 615.071 396.782 613.589 Q 397.615 612.107 397.949 610.618 Q 398.283 609.130 398.163 607.887 Q 398.043 606.645 397.491 605.801 Q 396.940 604.957 395.344 604.510 Q 393.749 604.063 391.858 604.040 Q 389.967 604.016 388.367 604.218 Q 386.767 604.420 385.340 605.174 Q 383.913 605.928 383.204 606.513 Q 382.495 607.098 382.114 607.566 Q 381.733 608.035 381.610 608.585 Q 381.487 609.136 381.491 609.505 Q 381.494 609.874 382.858 610.340 "></path>
    <path id="STROKE_131b04d5-f880-4d68-8009-a4a305dbf155" opacity="1.000" fill="none" stroke="#bb434e" stroke-width="2.675" stroke-opacity="1.000" stroke-linecap="round" stroke-linejoin="round" d="M 398.983 602.734 Q 398.948 602.734 398.779 602.716 Q 398.763 602.662 398.763 602.584 Q 398.977 602.739 399.561 604.049 Q 400.145 605.359 400.767 606.800 Q 401.390 608.241 401.826 609.238 Q 402.261 610.235 403.060 612.109 Q 403.858 613.982 404.901 615.364 Q 405.943 616.746 406.611 617.437 Q 407.278 618.129 408.049 618.393 Q 408.820 618.657 409.684 618.447 Q 410.548 618.238 411.223 617.741 Q 411.897 617.244 412.257 615.509 Q 412.618 613.774 412.752 612.274 Q 412.887 610.774 412.999 608.969 Q 413.110 607.165 413.118 606.186 Q 413.127 605.206 413.092 604.821 Q 413.056 604.437 412.933 603.934 Q 412.809 603.432 409.817 603.774 "></path>
    <path id="STROKE_359bdae3-4090-4048-b751-d0b47d4bdacf" opacity="1.000" fill="none" stroke="#bb434e" stroke-width="2.659" stroke-opacity="1.000" stroke-linecap="round" stroke-linejoin="round" d="M 407.660 606.183 Q 407.676 606.345 408.112 607.006 Q 408.548 607.667 409.156 608.629 Q 409.763 609.591 410.069 611.391 Q 410.375 613.191 410.423 615.173 Q 410.470 617.154 410.653 618.408 Q 410.836 619.661 411.090 620.426 Q 411.343 621.191 412.060 621.430 Q 412.776 621.669 413.600 621.203 Q 414.423 620.738 415.541 619.064 Q 416.659 617.389 418.005 614.581 Q 419.350 611.772 420.202 609.929 Q 421.054 608.085 421.625 606.703 Q 422.197 605.321 423.517 602.512 Q 423.430 603.046 420.242 605.552 "></path>
    <path id="STROKE_baea04fc-1c2c-4972-8723-c253fc1ed21d" opacity="1.000" fill="none" stroke="#bb434e" stroke-width="2.307" stroke-opacity="1.000" stroke-linecap="round" stroke-linejoin="round" d="M 333.562 713.989 Q 333.728 713.845 334.286 713.436 Q 334.706 713.182 334.733 719.927 Q 334.761 726.672 334.909 733.853 Q 335.058 741.034 335.134 744.468 Q 335.210 747.901 335.493 750.541 Q 335.775 753.181 336.357 755.687 Q 335.807 755.467 334.835 751.659 Q 333.863 747.851 333.493 745.442 Q 333.124 743.034 332.907 741.799 Q 332.689 740.565 332.458 739.408 Q 332.226 738.252 331.628 735.117 Q 331.030 731.982 330.854 729.985 Q 330.678 727.987 330.598 726.932 Q 330.519 725.877 330.688 725.127 Q 330.858 724.376 331.111 723.999 Q 331.363 723.621 331.709 723.166 Q 332.055 722.710 334.018 722.419 Q 335.981 722.128 337.401 722.180 Q 338.821 722.233 339.694 722.445 Q 340.566 722.658 341.793 723.174 Q 343.020 723.690 344.701 724.949 Q 346.382 726.209 347.714 727.467 Q 349.045 728.726 349.636 729.832 Q 350.227 730.938 350.445 732.099 Q 350.663 733.261 350.326 734.618 Q 349.990 735.975 349.083 737.355 Q 348.176 738.735 347.336 739.636 Q 346.496 740.537 345.414 741.035 Q 344.332 741.532 343.438 741.620 Q 342.543 741.707 342.069 741.732 Q 341.596 741.757 341.018 741.520 Q 340.440 741.283 340.357 739.957 Q 341.115 739.247 342.830 740.035 Q 344.544 740.823 345.469 741.522 Q 346.394 742.221 347.691 743.311 Q 348.988 744.402 350.056 745.356 Q 351.124 746.311 351.896 746.734 Q 352.668 747.157 353.144 747.276 Q 353.620 747.395 353.978 747.329 Q 354.336 747.263 354.422 747.077 Q 354.509 746.891 354.521 746.574 Q 354.532 746.257 354.554 746.203 Q 354.576 746.149 354.269 745.228 "></path>
    <path id="STROKE_138c68c5-1b2f-4be5-bf34-5cd5aea67c19" opacity="1.000" fill="none" stroke="#bb434e" stroke-width="2.718" stroke-opacity="1.000" stroke-linecap="round" stroke-linejoin="round" d="M 373.292 736.955 Q 373.418 736.755 372.733 736.546 Q 372.048 736.336 371.455 736.232 Q 370.861 736.129 369.871 736.877 Q 368.880 737.626 368.105 738.562 Q 367.330 739.499 366.813 740.777 Q 366.295 742.056 366.277 743.226 Q 366.259 744.397 366.387 745.181 Q 366.514 745.965 367.126 747.159 Q 367.738 748.354 368.544 749.276 Q 369.349 750.197 370.280 750.667 Q 371.210 751.138 372.397 751.255 Q 373.584 751.372 374.649 751.094 Q 375.713 750.816 376.793 749.678 Q 377.873 748.539 378.536 747.289 Q 379.199 746.039 379.429 745.229 Q 379.659 744.418 379.753 743.240 Q 379.848 742.062 379.474 741.112 Q 379.101 740.163 378.012 739.178 Q 376.923 738.194 375.289 737.965 Q 373.654 737.736 372.049 737.638 Q 370.444 737.540 369.335 737.632 Q 368.226 737.724 367.370 738.118 Q 366.513 738.512 366.032 739.116 Q 365.551 739.719 365.296 740.157 Q 365.041 740.596 365.804 741.629 "></path>
    <path id="STROKE_67d09a16-f121-4223-8c56-fd094d30bee5" opacity="1.000" fill="none" stroke="#bb434e" stroke-width="2.685" stroke-opacity="1.000" stroke-linecap="round" stroke-linejoin="round" d="M 387.551 732.685 Q 387.540 731.911 387.535 732.129 Q 387.272 731.606 387.370 731.795 L 387.350 731.795 Q 387.348 731.782 387.337 732.112 Q 387.325 732.441 387.333 732.670 Q 387.340 732.898 387.350 732.887 Q 387.360 732.876 387.310 733.679 Q 387.260 734.483 387.706 736.313 Q 388.152 738.143 389.366 741.066 Q 390.581 743.989 391.281 745.494 Q 391.982 746.999 392.570 747.849 Q 393.157 748.699 393.710 749.139 Q 394.264 749.578 395.065 749.656 Q 395.866 749.733 396.566 746.969 Q 397.266 744.206 397.544 742.065 Q 397.822 739.925 398.019 738.059 Q 398.217 736.194 398.184 734.865 Q 398.152 733.535 397.843 732.838 Q 397.534 732.140 397.350 731.793 Q 397.166 731.446 396.943 731.370 Q 396.719 731.294 396.719 731.288 Q 396.718 731.281 396.452 731.332 Q 396.185 731.384 393.842 730.389 "></path>
    <path id="STROKE_5294eecc-937f-4f36-bd0c-04d89fca0ba2" opacity="1.000" fill="none" stroke="#bb434e" stroke-width="2.675" stroke-opacity="1.000" stroke-linecap="round" stroke-linejoin="round" d="M 392.244 730.203 Q 392.578 730.410 392.543 730.386 Q 393.624 731.204 395.126 734.197 Q 396.627 737.190 398.054 740.082 Q 399.480 742.974 400.295 744.394 Q 401.110 745.814 401.596 746.670 Q 402.081 747.526 403.956 747.898 Q 404.502 747.675 404.659 745.427 Q 404.815 743.180 405.413 740.824 Q 406.011 738.467 406.810 736.421 Q 407.609 734.374 409.857 732.426 Q 409.857 732.602 409.857 732.871 Q 409.734 732.832 410.337 729.981 "></path>
  </g>
  <g id="Wire" opacity="1.000">
    <path id="STROKE_b9174f78-c08d-46c8-83ff-279ba57c54c1" opacity="1.000" fill="none" stroke="#000000" stroke-width="8.730" stroke-opacity="1.000" stroke-linecap="round" stroke-linejoin="round" d="M -51.523 564.580 Q -51.520 565.402 -51.514 571.491 Q -51.525 572.006 -51.553 575.711 Q -51.582 579.415 -51.595 581.947 Q -51.607 584.479 -51.617 586.801 Q -51.628 589.123 -51.640 592.852 Q -51.652 596.582 -51.656 603.367 Q -51.661 610.153 -51.660 613.784 Q -51.659 617.415 -51.662 619.202 Q -51.665 620.990 -51.671 625.164 Q -51.676 629.338 -51.681 631.850 Q -51.686 634.361 -51.690 637.943 Q -51.694 641.525 -51.688 646.713 Q -51.681 651.900 -51.681 656.456 Q -51.682 661.012 -51.706 668.988 Q -51.731 676.964 -51.744 681.105 Q -51.757 685.245 -51.770 689.332 Q -51.783 693.418 -51.808 702.119 Q -51.833 710.820 -51.864 718.185 Q -51.896 725.549 -51.914 728.934 Q -51.933 732.319 -51.972 738.591 Q -52.012 744.863 -52.046 750.319 Q -52.079 755.776 -52.102 759.816 Q -52.124 763.856 -52.153 767.979 Q -52.181 772.103 -52.212 776.430 Q -52.243 780.758 -52.292 786.380 Q -52.341 792.001 -52.403 798.811 Q -52.465 805.620 -52.527 812.676 Q -52.588 819.733 -52.625 827.352 Q -52.662 834.971 -52.666 838.726 Q -52.670 842.481 -52.669 844.161 Q -52.668 845.841 -52.668 848.915 Q -52.668 851.989 -52.632 856.459 Q -52.596 860.928 -52.564 864.208 Q -52.532 867.488 -52.503 870.499 Q -52.474 873.509 -52.445 876.005 Q -52.417 878.501 -52.378 881.874 Q -52.340 885.248 -52.299 889.363 Q -52.259 893.478 -52.211 897.651 Q -52.164 901.824 -52.118 905.150 Q -52.072 908.477 -51.915 914.976 Q -51.758 921.475 -51.664 924.917 Q -51.569 928.359 -51.450 932.754 Q -51.331 937.150 -51.264 939.684 Q -51.197 942.219 -51.051 946.588 Q -50.906 950.957 -50.797 954.215 Q -50.688 957.473 -50.640 958.943 Q -50.592 960.412 -50.525 962.071 Q -50.458 963.730 -50.390 965.611 Q -50.323 967.493 -50.217 971.691 L -50.198 973.082 L -50.158 975.362 L -50.034 979.190 "></path>
    <path id="STROKE_34d03717-2bd9-4852-8e94-3ffe9488e9ad" opacity="1.000" fill="none" stroke="#000000" stroke-width="8.730" stroke-opacity="1.000" stroke-linecap="round" stroke-linejoin="round" d="M -51.872 560.989 Q -51.420 560.982 -48.224 560.973 Q -45.028 560.964 -40.326 560.942 Q -35.623 560.920 -30.967 560.911 Q -26.311 560.902 -22.068 560.912 Q -17.825 560.922 -15.639 560.931 Q -13.454 560.940 -11.878 560.947 Q -10.302 560.955 -9.595 560.960 Q -8.889 560.965 -3.032 561.010 Q 2.825 561.056 5.983 561.092 Q 9.140 561.129 14.055 561.214 Q 18.971 561.299 22.210 561.363 Q 25.450 561.427 27.178 561.463 Q 28.906 561.498 29.761 561.517 Q 30.615 561.536 36.073 561.664 Q 41.530 561.793 44.630 561.870 Q 47.730 561.947 53.582 562.100 Q 59.435 562.253 65.076 562.398 Q 70.717 562.544 74.746 562.640 Q 78.774 562.736 84.320 562.860 Q 89.866 562.984 94.430 563.071 Q 98.993 563.157 101.630 563.194 Q 104.267 563.231 106.807 563.258 Q 109.347 563.285 115.751 563.309 Q 122.155 563.333 125.279 563.325 Q 128.403 563.316 133.434 563.272 Q 138.465 563.228 145.886 563.090 Q 153.307 562.953 158.085 562.833 "></path>
    <path id="STROKE_4ba09af2-2dbe-4331-96e6-4f8d818923c8" opacity="1.000" fill="none" stroke="#000000" stroke-width="8.730" stroke-opacity="1.000" stroke-linecap="round" stroke-linejoin="round" d="M 1.763 564.469 L 1.772 565.714 Q 1.763 566.485 1.770 569.783 Q 1.778 573.080 1.801 580.269 Q 1.824 587.458 1.844 593.409 Q 1.863 599.361 1.877 602.999 Q 1.890 606.637 1.923 612.105 Q 1.956 617.572 1.978 622.854 Q 2.001 628.136 2.012 632.038 Q 2.024 635.940 2.031 638.637 Q 2.038 641.335 2.077 651.175 Q 2.116 661.015 2.157 669.250 Q 2.199 677.485 2.209 679.067 Q 2.219 680.650 2.247 685.810 Q 2.275 690.970 2.294 694.078 Q 2.312 697.186 2.391 706.149 Q 2.470 715.113 2.573 723.620 Q 2.677 732.127 2.815 741.520 Q 2.953 750.912 3.028 755.494 Q 3.104 760.075 3.139 762.075 Q 3.175 764.075 3.217 766.277 Q 3.259 768.479 3.290 770.140 Q 3.321 771.801 3.401 776.243 Q 3.480 780.685 3.524 783.291 Q 3.568 785.898 3.648 790.064 Q 3.728 794.230 3.776 796.492 Q 3.823 798.755 3.896 803.924 Q 3.969 809.094 4.014 812.604 Q 4.060 816.114 4.096 818.504 Q 4.132 820.895 4.162 824.464 Q 4.192 828.033 4.212 831.062 Q 4.232 834.090 4.259 839.492 Q 4.285 844.893 4.290 847.574 Q 4.295 850.256 4.295 853.199 Q 4.296 856.142 4.273 859.547 Q 4.251 862.951 4.233 865.180 Q 4.216 867.408 4.163 870.600 Q 4.111 873.792 4.073 875.483 Q 4.035 877.173 4.006 878.798 Q 3.977 880.424 3.893 884.525 Q 3.809 888.625 3.734 891.532 Q 3.659 894.440 3.603 896.513 Q 3.546 898.587 3.505 900.004 Q 3.463 901.421 3.348 905.099 Q 3.234 908.777 3.067 913.071 Q 2.901 917.364 2.808 919.487 Q 2.715 921.609 2.603 924.223 Q 2.490 926.837 2.408 928.694 Q 2.327 930.552 2.232 932.602 Q 2.136 934.651 2.043 936.633 Q 1.949 938.615 1.807 941.606 Q 1.664 944.597 1.485 948.164 Q 1.306 951.732 1.218 953.450 Q 1.130 955.168 1.078 956.238 Q 1.026 957.309 0.937 959.026 Q 0.847 960.743 0.830 960.996 Q 0.812 961.248 0.424 968.236 Q 0.373 969.007 0.264 971.018 Q 0.154 973.030 0.001 975.771 "></path>
    <path id="STROKE_a5ae1838-d23e-47c2-8c1b-f50d282e0cc5" opacity="1.000" fill="none" stroke="#000000" stroke-width="8.730" stroke-opacity="1.000" stroke-linecap="round" stroke-linejoin="round" d="M 54.765 565.665 Q 54.763 566.019 54.717 568.999 Q 54.714 569.775 54.723 576.794 Q 54.733 583.813 54.745 588.988 Q 54.757 594.164 54.768 597.880 Q 54.779 601.597 54.794 605.686 Q 54.809 609.776 54.819 612.032 Q 54.829 614.287 54.836 616.025 Q 54.843 617.764 54.878 623.683 Q 54.913 629.602 54.951 634.216 Q 54.989 638.831 55.074 648.121 Q 55.158 657.412 55.206 662.713 Q 55.255 668.014 55.290 672.200 Q 55.324 676.385 55.370 682.055 Q 55.416 687.726 55.449 691.425 Q 55.482 695.125 55.528 701.401 Q 55.575 707.678 55.593 712.070 Q 55.612 716.461 55.604 726.159 Q 55.596 735.856 55.495 747.330 Q 55.393 758.804 55.298 764.856 Q 55.203 770.909 55.141 774.036 Q 55.079 777.163 54.893 784.769 Q 54.708 792.375 54.451 800.685 Q 54.195 808.996 53.794 819.281 Q 53.394 829.567 53.171 834.661 Q 52.948 839.754 52.581 847.791 Q 52.215 855.828 52.014 860.113 Q 51.813 864.398 51.690 867.009 Q 51.568 869.620 51.351 874.217 Q 51.133 878.813 50.871 884.334 Q 50.608 889.854 50.319 896.103 Q 50.031 902.351 49.893 905.519 Q 49.756 908.686 49.514 914.741 Q 49.271 920.795 49.131 924.531 Q 48.991 928.266 48.914 930.456 Q 48.838 932.647 48.756 935.457 Q 48.675 938.268 48.561 941.986 Q 48.446 945.705 48.360 948.705 Q 48.273 951.705 48.228 953.300 Q 48.183 954.895 48.110 957.397 Q 48.037 959.900 47.970 962.439 Q 47.904 964.979 47.852 966.831 Q 47.800 968.683 47.735 970.572 Q 47.701 972.507 47.674 973.622 L 47.575 976.508 "></path>
    <path id="STROKE_d974bece-1210-4830-b163-6febda28c576" opacity="1.000" fill="none" stroke="#000000" stroke-width="8.730" stroke-opacity="1.000" stroke-linecap="round" stroke-linejoin="round" d="M -51.686 614.031 Q -49.838 613.956 -49.088 613.923 Q -48.234 613.900 -38.048 613.563 Q -27.863 613.226 -22.302 613.036 Q -16.741 612.847 -14.066 612.752 Q -11.391 612.657 -3.680 612.379 Q 4.031 612.101 10.341 611.866 Q 16.651 611.632 24.044 611.332 Q 31.438 611.033 35.124 610.877 Q 38.810 610.722 42.267 610.578 Q 45.725 610.434 53.733 610.105 Q 61.741 609.776 65.933 609.604 Q 70.125 609.432 72.105 609.351 Q 74.084 609.271 77.645 609.113 Q 81.206 608.955 90.846 608.560 Q 100.486 608.166 105.923 607.957 Q 111.361 607.749 115.079 607.615 Q 118.797 607.481 123.500 607.325 Q 128.202 607.168 131.922 607.051 Q 135.642 606.935 142.942 606.733 Q 150.243 606.531 156.351 606.453 "></path>
    <path id="STROKE_49e419b8-df96-4849-aca7-61152523f61b" opacity="1.000" fill="none" stroke="#000000" stroke-width="8.730" stroke-opacity="1.000" stroke-linecap="round" stroke-linejoin="round" d="M -46.210 666.887 Q -45.466 666.872 -44.614 666.841 Q -43.761 666.810 -43.061 666.788 Q -42.361 666.766 -40.004 666.718 Q -37.647 666.670 -32.758 666.576 Q -27.868 666.481 -18.913 666.305 Q -9.958 666.129 -4.282 666.025 Q 1.394 665.920 4.029 665.877 Q 6.664 665.835 11.181 665.762 Q 15.698 665.690 27.610 665.514 Q 39.521 665.338 45.612 665.256 Q 51.703 665.174 54.740 665.135 Q 57.776 665.097 67.981 664.956 Q 78.186 664.815 88.077 664.661 Q 97.967 664.507 103.153 664.417 Q 108.339 664.326 112.541 664.250 Q 116.744 664.174 122.064 664.075 Q 127.384 663.976 138.017 663.722 Q 148.650 663.469 153.861 663.326 "></path>
    <path id="STROKE_262e281b-a40a-4e5c-907e-e1ada27f1a53" opacity="1.000" fill="none" stroke="#000000" stroke-width="8.730" stroke-opacity="1.000" stroke-linecap="round" stroke-linejoin="round" d="M 103.141 565.463 Q 103.310 569.559 103.362 570.642 Q 103.414 571.724 103.474 573.246 Q 103.535 574.768 103.739 579.983 Q 103.942 585.199 104.177 591.988 Q 104.411 598.778 104.528 602.445 Q 104.645 606.112 104.759 609.937 Q 104.873 613.761 105.043 620.822 Q 105.214 627.883 105.282 631.555 Q 105.350 635.227 105.391 637.452 Q 105.431 639.677 105.545 646.047 Q 105.658 652.418 105.712 656.641 Q 105.765 660.865 105.804 665.918 Q 105.844 670.971 105.873 677.352 Q 105.902 683.733 105.910 687.185 Q 105.918 690.637 105.914 692.401 Q 105.909 694.165 105.893 697.617 Q 105.877 701.068 105.827 707.380 Q 105.777 713.693 105.741 717.178 Q 105.706 720.664 105.684 722.587 Q 105.662 724.510 105.643 726.668 Q 105.624 728.825 105.570 733.815 Q 105.517 738.805 105.442 745.440 Q 105.368 752.076 105.330 755.143 Q 105.292 758.211 105.267 760.291 Q 105.241 762.371 105.230 763.466 Q 105.219 764.561 105.144 770.023 Q 105.069 775.484 104.970 782.868 Q 104.870 790.252 104.803 795.193 Q 104.735 800.135 104.646 806.213 Q 104.556 812.292 104.508 815.900 Q 104.459 819.508 104.361 828.120 Q 104.263 836.733 104.214 841.472 Q 104.164 846.211 104.130 849.651 Q 104.095 853.090 104.058 857.306 Q 104.021 861.521 104.005 863.666 Q 103.989 865.811 103.975 867.568 Q 103.961 869.325 103.948 872.320 Q 103.935 875.315 103.914 879.208 Q 103.893 883.102 103.875 886.759 Q 103.856 890.415 103.848 892.475 Q 103.839 894.535 103.808 905.941 Q 103.776 917.347 103.767 925.933 Q 103.758 934.520 103.751 942.707 Q 103.744 950.895 103.737 954.986 Q 103.730 959.077 103.738 964.364 Q 103.745 969.651 103.745 973.814 Q 103.745 977.977 103.741 979.438 "></path>
    <path id="STROKE_0a546c17-4670-410f-ae81-3bc005e5517d" opacity="1.000" fill="none" stroke="#000000" stroke-width="8.730" stroke-opacity="1.000" stroke-linecap="round" stroke-linejoin="round" d="M 156.679 563.953 Q 156.643 565.013 156.475 568.552 Q 156.307 572.090 155.849 582.191 Q 155.390 592.292 155.057 599.479 Q 154.723 606.665 154.208 618.301 Q 153.693 629.937 153.312 638.268 Q 152.932 646.599 152.732 651.078 Q 152.531 655.557 152.392 658.783 Q 152.253 662.010 152.103 665.548 Q 151.952 669.086 151.490 681.113 Q 151.027 693.141 150.812 699.858 Q 150.596 706.576 150.400 714.195 Q 150.204 721.815 150.081 728.365 Q 149.957 734.916 149.913 737.978 Q 149.869 741.041 149.834 759.476 Q 149.799 777.912 149.914 787.469 Q 150.030 797.027 150.123 801.846 Q 150.216 806.666 150.270 808.880 Q 150.324 811.095 150.378 813.227 Q 150.432 815.360 150.505 818.076 Q 150.578 820.792 150.681 824.230 Q 150.784 827.668 150.888 830.913 Q 150.992 834.158 151.142 839.054 Q 151.293 843.950 151.408 847.438 Q 151.523 850.926 151.614 853.306 Q 151.705 855.687 151.817 859.085 Q 151.930 862.484 152.117 868.665 Q 152.305 874.846 152.392 877.842 Q 152.480 880.837 152.548 882.995 Q 152.616 885.153 152.669 886.705 Q 152.723 888.258 152.788 890.259 Q 152.852 892.261 152.966 896.103 Q 153.080 899.945 153.144 902.386 Q 153.209 904.828 153.375 912.243 Q 153.541 919.658 153.650 925.876 Q 153.758 932.094 153.822 937.327 Q 153.887 942.560 153.907 945.083 Q 153.927 947.606 153.957 950.300 Q 153.988 952.994 154.006 954.878 Q 154.024 956.761 154.030 958.716 Q 154.036 960.670 154.038 961.594 Q 154.040 962.519 154.051 964.206 Q 154.063 965.893 154.082 968.112 Q 154.101 970.331 154.117 972.576 Q 154.133 974.821 154.141 976.259 Q 154.149 977.697 154.151 978.429 Q 154.153 979.160 154.149 979.669 Q 154.144 980.178 154.170 984.822 "></path>
    <path id="STROKE_7f77a58c-3625-4f90-a4dd-6c5dfd1b850a" opacity="1.000" fill="none" stroke="#bb434e" stroke-width="8.730" stroke-opacity="1.000" stroke-linecap="round" stroke-linejoin="round" d="M -97.168 667.224 Q -95.686 667.214 -95.274 667.210 Q -94.862 667.207 -91.968 667.193 Q -91.283 667.192 -87.405 667.168 Q -83.527 667.145 -69.921 667.051 Q -56.315 666.957 -48.398 666.907 Q -40.481 666.858 -35.192 666.821 Q -29.904 666.784 -25.870 666.760 Q -21.837 666.735 -14.118 666.694 Q -6.400 666.652 -0.372 666.616 Q 5.656 666.579 9.637 666.554 Q 13.619 666.528 29.130 666.417 Q 44.641 666.307 53.540 666.234 Q 62.439 666.162 65.170 666.140 Q 67.900 666.118 77.119 666.037 Q 86.337 665.955 91.846 665.900 Q 97.355 665.846 107.676 665.737 Q 117.996 665.629 129.797 665.502 Q 141.598 665.375 143.449 665.353 Q 145.300 665.331 149.267 665.288 Q 153.234 665.245 158.718 665.186 Q 164.203 665.127 172.183 665.030 Q 180.164 664.932 183.353 664.899 Q 186.543 664.865 187.119 664.862 Q 187.695 664.859 189.530 664.839 Q 191.366 664.818 192.992 664.802 Q 194.618 664.785 195.231 664.780 Q 195.845 664.776 199.350 664.743 L 204.702 664.685 "></path>
    <path id="STROKE_056f85bf-cb89-44d8-a518-c9fdec2e701a" opacity="1.000" fill="none" stroke="#000000" stroke-width="8.730" stroke-opacity="1.000" stroke-linecap="round" stroke-linejoin="round" d="M -56.699 720.736 Q -54.500 720.682 -54.208 720.654 Q -54.106 720.646 -44.786 720.470 Q -35.466 720.293 -28.312 720.136 Q -21.159 719.978 -14.124 719.841 Q -7.090 719.703 7.220 719.425 Q 21.531 719.148 30.724 718.976 Q 39.917 718.804 47.325 718.675 Q 54.733 718.546 63.882 718.385 Q 73.031 718.224 82.434 718.069 Q 91.838 717.914 101.321 717.768 Q 110.804 717.623 115.653 717.551 Q 120.502 717.478 122.942 717.439 Q 125.381 717.401 129.946 717.323 Q 134.511 717.245 139.269 717.172 Q 139.758 717.206 151.209 716.990 "></path>
    <path id="STROKE_44981719-f27c-4df6-8f2b-ae1b1b14ff32" opacity="1.000" fill="none" stroke="#000000" stroke-width="8.730" stroke-opacity="1.000" stroke-linecap="round" stroke-linejoin="round" d="M -56.301 770.018 Q -54.358 769.982 -51.828 769.923 Q -49.298 769.865 -37.347 769.686 Q -25.396 769.508 -20.342 769.416 Q -15.288 769.325 -8.056 769.202 Q -0.823 769.078 11.150 768.892 Q 23.123 768.706 32.792 768.553 Q 42.462 768.400 49.363 768.283 Q 56.264 768.167 63.327 768.062 Q 70.389 767.957 77.636 767.856 Q 84.883 767.755 94.411 767.618 Q 103.939 767.482 106.304 767.447 Q 108.669 767.412 108.863 767.409 Q 109.057 767.406 116.013 767.304 Q 122.970 767.201 123.216 767.201 Q 123.462 767.202 125.687 767.180 Q 127.912 767.158 128.097 767.164 Q 128.281 767.169 135.275 767.069 Q 142.268 766.970 144.646 766.927 Q 147.024 766.884 149.567 766.839 "></path>
    <path id="STROKE_9987c06c-99ea-4ec7-809c-2cf0a5cd2ca7" opacity="1.000" fill="none" stroke="#000000" stroke-width="8.730" stroke-opacity="1.000" stroke-linecap="round" stroke-linejoin="round" d="M -49.922 825.089 L -47.714 825.021 Q -47.442 824.988 -42.867 824.870 Q -38.291 824.751 -33.474 824.602 Q -28.657 824.453 -19.423 824.229 Q -10.189 824.005 -5.397 823.899 Q -0.605 823.793 9.040 823.536 Q 18.686 823.279 23.406 823.152 Q 28.126 823.025 37.409 822.813 Q 46.693 822.601 51.602 822.494 Q 56.510 822.386 61.011 822.289 Q 65.513 822.192 67.897 822.141 Q 70.282 822.089 70.478 822.089 Q 70.675 822.090 77.782 821.925 Q 84.890 821.761 91.820 821.620 Q 98.751 821.479 101.156 821.434 Q 103.561 821.389 106.039 821.358 Q 108.517 821.328 110.714 821.284 Q 112.911 821.240 115.382 821.203 Q 117.853 821.167 120.058 821.129 Q 122.262 821.090 124.803 821.037 Q 127.343 820.984 129.815 820.926 Q 132.287 820.869 134.536 820.819 Q 136.785 820.769 139.046 820.729 Q 141.308 820.689 141.620 820.696 Q 141.933 820.703 144.118 820.647 Q 146.303 820.591 148.582 820.525 "></path>
    <path id="STROKE_1f1d6f36-8ce6-4d57-9bf6-e7fbacf5f4d7" opacity="1.000" fill="none" stroke="#bb434e" stroke-width="8.730" stroke-opacity="1.000" stroke-linecap="round" stroke-linejoin="round" d="M -101.521 821.470 Q -101.084 821.472 -100.681 821.474 Q -100.278 821.476 -99.300 821.477 Q -98.619 821.474 -97.223 821.475 Q -95.827 821.475 -93.185 821.478 Q -90.543 821.480 -88.743 821.482 Q -86.943 821.484 -84.448 821.487 Q -81.952 821.490 -80.249 821.492 Q -78.546 821.495 -75.333 821.496 Q -72.121 821.497 -69.755 821.499 Q -67.390 821.501 -65.507 821.503 Q -63.625 821.504 -58.220 821.511 Q -52.814 821.518 -49.372 821.524 Q -45.931 821.529 -41.272 821.540 Q -36.613 821.551 -33.820 821.557 Q -31.026 821.563 -28.860 821.567 Q -26.694 821.571 -22.650 821.578 Q -18.605 821.586 -16.626 821.589 Q -14.647 821.592 -12.112 821.597 Q -9.578 821.603 -6.956 821.609 Q -4.335 821.616 -2.655 821.619 Q -0.974 821.623 3.644 821.629 Q 8.263 821.636 10.742 821.639 Q 13.222 821.642 14.589 821.643 Q 15.957 821.645 17.275 821.647 Q 18.594 821.648 22.652 821.651 Q 26.711 821.653 28.864 821.653 Q 31.017 821.652 33.085 821.654 Q 35.152 821.656 38.940 821.660 Q 42.727 821.664 46.642 821.666 Q 50.557 821.668 52.818 821.669 Q 55.078 821.670 58.503 821.673 Q 61.929 821.676 64.330 821.678 Q 66.732 821.680 68.588 821.681 Q 70.444 821.682 74.742 821.683 Q 79.039 821.683 82.962 821.684 Q 86.886 821.685 91.733 821.685 Q 96.580 821.685 98.980 821.685 Q 101.379 821.686 102.678 821.685 Q 103.977 821.684 105.561 821.682 Q 107.144 821.680 109.873 821.680 Q 112.603 821.679 114.020 821.679 Q 115.438 821.680 119.437 821.677 Q 123.437 821.675 125.869 821.672 Q 128.301 821.669 129.665 821.667 Q 131.030 821.666 131.547 821.664 Q 132.063 821.662 133.667 821.658 Q 135.271 821.654 138.143 821.653 Q 141.015 821.652 142.849 821.653 Q 144.682 821.653 145.586 821.654 Q 146.490 821.655 149.216 821.656 Q 151.942 821.656 155.821 821.656 Q 159.700 821.656 161.583 821.656 Q 163.466 821.656 165.931 821.654 Q 168.395 821.653 170.731 821.653 Q 173.067 821.653 175.447 821.658 Q 177.826 821.662 179.164 821.663 Q 180.502 821.664 182.095 821.665 Q 183.687 821.665 185.015 821.667 Q 186.343 821.669 189.120 821.669 Q 191.898 821.669 194.309 821.671 Q 196.720 821.672 198.400 821.674 Q 200.079 821.676 202.510 821.677 Q 204.940 821.678 207.125 821.678 L 207.925 821.680 "></path>
  </g>
</svg>